<svg width="139" height="40" viewBox="0 0 139 40" fill="none" xmlns="http://www.w3.org/2000/svg">
    <path
        d="M137.692 35.387C137.692 37.5187 135.929 39.2453 133.749 39.2453H4.71707C2.53789 39.2453 0.769043 37.5187 0.769043 35.387V4.61812C0.769043 2.48748 2.53789 0.754761 4.71707 0.754761H133.748C135.929 0.754761 137.691 2.48748 137.691 4.61812L137.692 35.387Z"
        fill="black" />
    <path
        d="M133.333 0.801129C135.708 0.801129 137.64 2.68488 137.64 4.99988V34.9999C137.64 37.3149 135.708 39.1986 133.333 39.1986H5.12821C2.75385 39.1986 0.821795 37.3149 0.821795 34.9999V4.99988C0.821795 2.68488 2.75385 0.801129 5.12821 0.801129H133.333ZM133.333 -0.000119956H5.12821C2.30897 -0.000119956 0 2.25113 0 4.99988V34.9999C0 37.7486 2.30897 39.9999 5.12821 39.9999H133.333C136.153 39.9999 138.462 37.7486 138.462 34.9999V4.99988C138.462 2.25113 136.153 -0.000119956 133.333 -0.000119956Z"
        fill="#A6A6A6" />
    <path
        d="M30.9002 19.784C30.8705 16.561 33.6069 14.993 33.732 14.92C32.1823 12.717 29.7802 12.416 28.9361 12.392C26.9187 12.185 24.9618 13.569 23.9341 13.569C22.8859 13.569 21.3033 12.412 19.5977 12.446C17.4028 12.479 15.3495 13.718 14.2233 15.642C11.8992 19.565 13.6325 25.33 15.8592 28.501C16.9731 30.054 18.2746 31.788 19.9782 31.727C21.6449 31.66 22.2674 30.691 24.2787 30.691C26.2715 30.691 26.8561 31.727 28.5936 31.688C30.3823 31.66 31.5084 30.128 32.5833 28.561C33.8705 26.781 34.3874 25.028 34.4079 24.938C34.3659 24.924 30.9341 23.647 30.9002 19.784Z"
        fill="white" />
    <path
        d="M27.6182 10.306C28.5146 9.21304 29.1279 7.72604 28.9577 6.21704C27.6602 6.27304 26.0377 7.09204 25.1033 8.16104C24.2766 9.10304 23.5382 10.647 23.729 12.099C25.1864 12.205 26.6828 11.382 27.6182 10.306Z"
        fill="white" />
    <path
        d="M55.0206 31.504H52.6914L51.4155 27.595H46.9806L45.7652 31.504H43.4976L47.8914 18.196H50.6052L55.0206 31.504ZM51.0309 25.955L49.877 22.48C49.755 22.125 49.5263 21.289 49.1888 19.973H49.1478C49.0135 20.539 48.797 21.375 48.4996 22.48L47.3663 25.955H51.0309V25.955Z"
        fill="white" />
    <path
        d="M66.3202 26.5881C66.3202 28.2201 65.8679 29.5101 64.9633 30.4571C64.1531 31.3001 63.1469 31.7211 61.9459 31.7211C60.6495 31.7211 59.7182 31.2671 59.151 30.3591H59.11V35.4141H56.9233V25.0671C56.9233 24.0411 56.8956 22.9881 56.8423 21.9081H58.7654L58.8874 23.4291H58.9284C59.6577 22.2831 60.7643 21.7111 62.2495 21.7111C63.4105 21.7111 64.3797 22.1581 65.1551 23.0531C65.9325 23.9491 66.3202 25.1271 66.3202 26.5881ZM64.0925 26.6661C64.0925 25.7321 63.8772 24.9621 63.4443 24.3561C62.9715 23.7241 62.3366 23.4081 61.5407 23.4081C61.0013 23.4081 60.511 23.5841 60.0731 23.9311C59.6341 24.2811 59.3469 24.7381 59.2125 25.3041C59.1448 25.5681 59.111 25.7841 59.111 25.9541V27.5541C59.111 28.2521 59.3305 28.8411 59.7695 29.3221C60.2084 29.8031 60.7787 30.0431 61.4802 30.0431C62.3038 30.0431 62.9448 29.7331 63.4033 29.1151C63.8628 28.4961 64.0925 27.6801 64.0925 26.6661Z"
        fill="white" />
    <path
        d="M77.64 26.5881C77.64 28.2201 77.1877 29.5101 76.2821 30.4571C75.4728 31.3001 74.4667 31.7211 73.2656 31.7211C71.9692 31.7211 71.038 31.2671 70.4718 30.3591H70.4308V35.4141H68.2441V25.0671C68.2441 24.0411 68.2164 22.9881 68.1631 21.9081H70.0862L70.2082 23.4291H70.2492C70.9774 22.2831 72.0841 21.7111 73.5703 21.7111C74.7303 21.7111 75.6995 22.1581 76.4769 23.0531C77.2513 23.9491 77.64 25.1271 77.64 26.5881ZM75.4123 26.6661C75.4123 25.7321 75.1959 24.9621 74.7631 24.3561C74.2903 23.7241 73.6574 23.4081 72.8605 23.4081C72.32 23.4081 71.8308 23.5841 71.3918 23.9311C70.9528 24.2811 70.6667 24.7381 70.5323 25.3041C70.4656 25.5681 70.4308 25.7841 70.4308 25.9541V27.5541C70.4308 28.2521 70.6503 28.8411 71.0872 29.3221C71.5262 29.8021 72.0964 30.0431 72.8 30.0431C73.6236 30.0431 74.2646 29.7331 74.7231 29.1151C75.1826 28.4961 75.4123 27.6801 75.4123 26.6661Z"
        fill="white" />
    <path
        d="M90.2968 27.7721C90.2968 28.9041 89.8937 29.8251 89.0845 30.5361C88.1953 31.3131 86.9573 31.7011 85.3665 31.7011C83.8978 31.7011 82.7204 31.4251 81.8291 30.8721L82.3358 29.0951C83.2958 29.6611 84.3491 29.9451 85.4968 29.9451C86.3204 29.9451 86.9614 29.7631 87.4219 29.4011C87.8804 29.0391 88.1091 28.5531 88.1091 27.9471C88.1091 27.4071 87.9204 26.9521 87.5419 26.5831C87.1655 26.2141 86.5368 25.8711 85.6588 25.5541C83.2691 24.6851 82.0753 23.4121 82.0753 21.7381C82.0753 20.6441 82.4937 19.7471 83.3317 19.0491C84.1665 18.3501 85.2804 18.0011 86.6732 18.0011C87.9153 18.0011 88.9471 18.2121 89.7706 18.6331L89.224 20.3711C88.4547 19.9631 87.585 19.7591 86.6117 19.7591C85.8424 19.7591 85.2414 19.9441 84.8106 20.3121C84.4465 20.6411 84.264 21.0421 84.264 21.5171C84.264 22.0431 84.4722 22.4781 84.8906 22.8201C85.2547 23.1361 85.9163 23.4781 86.8763 23.8471C88.0506 24.3081 88.9132 24.8471 89.4681 25.4651C90.0209 26.0811 90.2968 26.8521 90.2968 27.7721Z"
        fill="white" />
    <path
        d="M97.5261 23.5081H95.1158V28.1671C95.1158 29.3521 95.5404 29.9441 96.3917 29.9441C96.7825 29.9441 97.1066 29.9111 97.363 29.8451L97.4235 31.4641C96.9927 31.6211 96.4256 31.7001 95.723 31.7001C94.8594 31.7001 94.1845 31.4431 93.6974 30.9301C93.2122 30.4161 92.9681 29.5541 92.9681 28.3431V23.5061H91.5322V21.9061H92.9681V20.1491L95.1158 19.5171V21.9061H97.5261V23.5081Z"
        fill="white" />
    <path
        d="M108.401 26.627C108.401 28.102 107.968 29.313 107.105 30.26C106.199 31.235 104.997 31.721 103.499 31.721C102.055 31.721 100.905 31.254 100.047 30.32C99.1899 29.386 98.7612 28.207 98.7612 26.786C98.7612 25.299 99.2023 24.081 100.087 23.134C100.97 22.186 102.162 21.712 103.661 21.712C105.105 21.712 106.267 22.179 107.144 23.114C107.983 24.021 108.401 25.192 108.401 26.627ZM106.133 26.696C106.133 25.811 105.939 25.052 105.546 24.419C105.087 23.653 104.432 23.271 103.583 23.271C102.704 23.271 102.036 23.654 101.578 24.419C101.185 25.053 100.991 25.824 100.991 26.736C100.991 27.621 101.185 28.38 101.578 29.012C102.05 29.778 102.711 30.16 103.563 30.16C104.398 30.16 105.054 29.77 105.526 28.992C105.929 28.347 106.133 27.58 106.133 26.696Z"
        fill="white" />
    <path
        d="M115.509 23.7831C115.292 23.7441 115.062 23.7241 114.82 23.7241C114.05 23.7241 113.455 24.0071 113.037 24.5741C112.673 25.0741 112.49 25.7061 112.49 26.4691V31.5041H110.305L110.325 24.9301C110.325 23.8241 110.298 22.8171 110.243 21.9091H112.148L112.228 23.7451H112.288C112.519 23.1141 112.883 22.6061 113.382 22.2251C113.869 21.8821 114.395 21.7111 114.962 21.7111C115.164 21.7111 115.347 21.7251 115.509 21.7501V23.7831Z"
        fill="white" />
    <path
        d="M125.289 26.2521C125.289 26.6341 125.263 26.9561 125.209 27.2191H118.649C118.674 28.1671 118.991 28.8921 119.6 29.3921C120.153 29.8391 120.868 30.0631 121.746 30.0631C122.717 30.0631 123.604 29.9121 124.4 29.6091L124.743 31.0891C123.812 31.4851 122.712 31.6821 121.444 31.6821C119.917 31.6821 118.719 31.2441 117.848 30.3691C116.978 29.4941 116.542 28.3191 116.542 26.8451C116.542 25.3981 116.947 24.1931 117.758 23.2321C118.608 22.2061 119.755 21.6931 121.199 21.6931C122.618 21.6931 123.692 22.2061 124.421 23.2321C124.998 24.0471 125.289 25.0551 125.289 26.2521ZM123.204 25.6991C123.218 25.0671 123.075 24.5211 122.779 24.0601C122.4 23.4671 121.819 23.1711 121.036 23.1711C120.321 23.1711 119.74 23.4601 119.296 24.0401C118.932 24.5011 118.715 25.0541 118.649 25.6981H123.204V25.6991Z"
        fill="white" />
    <path
        d="M50.3077 10.0091C50.3077 11.1861 49.9456 12.0721 49.2226 12.6671C48.5528 13.2161 47.601 13.4911 46.3682 13.4911C45.7569 13.4911 45.2338 13.4651 44.7959 13.4131V6.98207C45.3672 6.89207 45.9826 6.84607 46.6472 6.84607C47.8215 6.84607 48.7067 7.09507 49.3036 7.59307C49.9723 8.15607 50.3077 8.96107 50.3077 10.0091ZM49.1744 10.0381C49.1744 9.27507 48.9672 8.69007 48.5528 8.28207C48.1385 7.87507 47.5333 7.67107 46.7364 7.67107C46.398 7.67107 46.1097 7.69307 45.8708 7.73907V12.6281C46.0031 12.6481 46.2451 12.6571 46.5969 12.6571C47.4195 12.6571 48.0544 12.4341 48.5015 11.9881C48.9487 11.5421 49.1744 10.8921 49.1744 10.0381Z"
        fill="white" />
    <path
        d="M56.3169 11.037C56.3169 11.762 56.1046 12.356 55.68 12.822C55.2349 13.301 54.6451 13.54 53.9087 13.54C53.199 13.54 52.6339 13.311 52.2123 12.851C51.7918 12.392 51.5815 11.813 51.5815 11.115C51.5815 10.385 51.798 9.78605 52.2328 9.32105C52.6677 8.85605 53.2523 8.62305 53.9887 8.62305C54.6985 8.62305 55.2687 8.85205 55.7005 9.31105C56.1108 9.75705 56.3169 10.333 56.3169 11.037ZM55.2021 11.071C55.2021 10.636 55.1056 10.263 54.9139 9.95205C54.6882 9.57605 54.3672 9.38805 53.9498 9.38805C53.518 9.38805 53.1897 9.57605 52.9641 9.95205C52.7713 10.263 52.6759 10.642 52.6759 11.09C52.6759 11.525 52.7723 11.898 52.9641 12.209C53.1969 12.585 53.521 12.773 53.9395 12.773C54.3498 12.773 54.6718 12.582 54.9036 12.199C55.1026 11.882 55.2021 11.506 55.2021 11.071Z"
        fill="white" />
    <path
        d="M64.3743 8.71912L62.8614 13.4331H61.8768L61.2502 11.3861C61.0912 10.8751 60.962 10.3671 60.8614 9.86312H60.842C60.7486 10.3811 60.6194 10.8881 60.4532 11.3861L59.7876 13.4331H58.7917L57.3691 8.71912H58.4738L59.0204 10.9601C59.1527 11.4901 59.2614 11.9951 59.3486 12.4731H59.3681C59.4481 12.0791 59.5804 11.5771 59.7671 10.9701L60.4532 8.72012H61.3291L61.9866 10.9221C62.1455 11.4591 62.2748 11.9761 62.3743 12.4741H62.404C62.4768 11.9891 62.5866 11.4721 62.7322 10.9221L63.3189 8.72012H64.3743V8.71912Z"
        fill="white" />
    <path
        d="M69.9464 13.433H68.8716V10.733C68.8716 9.901 68.5475 9.485 67.8972 9.485C67.5782 9.485 67.3208 9.599 67.1208 9.828C66.9229 10.057 66.8223 10.327 66.8223 10.636V13.432H65.7475V10.066C65.7475 9.652 65.7341 9.203 65.7085 8.717H66.6531L66.7034 9.454H66.7331C66.8582 9.225 67.0449 9.036 67.29 8.885C67.5813 8.709 67.9075 8.62 68.2644 8.62C68.7157 8.62 69.091 8.762 69.3895 9.047C69.7608 9.396 69.9464 9.917 69.9464 10.609V13.433V13.433Z"
        fill="white" />
    <path d="M72.9108 13.433H71.8369V6.55603H72.9108V13.433Z" fill="white" />
    <path
        d="M79.2393 11.0369C79.2393 11.7619 79.027 12.3559 78.6024 12.8219C78.1572 13.3009 77.5665 13.5399 76.8311 13.5399C76.1203 13.5399 75.5552 13.3109 75.1347 12.8509C74.7142 12.3919 74.5039 11.8129 74.5039 11.1149C74.5039 10.3849 74.7203 9.78592 75.1552 9.32092C75.5901 8.85592 76.1747 8.62292 76.9101 8.62292C77.6208 8.62292 78.1901 8.85192 78.6229 9.31092C79.0331 9.75692 79.2393 10.3329 79.2393 11.0369ZM78.1234 11.0709C78.1234 10.6359 78.027 10.2629 77.8352 9.95192C77.6106 9.57592 77.2885 9.38792 76.8721 9.38792C76.4393 9.38792 76.1111 9.57592 75.8865 9.95192C75.6936 10.2629 75.5983 10.6419 75.5983 11.0899C75.5983 11.5249 75.6947 11.8979 75.8865 12.2089C76.1193 12.5849 76.4434 12.7729 76.8619 12.7729C77.2721 12.7729 77.5931 12.5819 77.8249 12.1989C78.0249 11.8819 78.1234 11.5059 78.1234 11.0709Z"
        fill="white" />
    <path
        d="M84.4414 13.4329H83.4763L83.3963 12.8899H83.3665C83.0363 13.3229 82.5655 13.5399 81.9542 13.5399C81.4978 13.5399 81.1286 13.3969 80.8506 13.1129C80.5983 12.8549 80.4722 12.5339 80.4722 12.1529C80.4722 11.5769 80.7183 11.1379 81.2137 10.8339C81.7081 10.5299 82.4035 10.3809 83.2988 10.3879V10.2999C83.2988 9.67892 82.9645 9.36892 82.2947 9.36892C81.8178 9.36892 81.3973 9.48592 81.0342 9.71792L80.8158 9.02992C81.265 8.75892 81.8199 8.62292 82.4742 8.62292C83.7378 8.62292 84.3717 9.27292 84.3717 10.5729V12.3089C84.3717 12.7799 84.3952 13.1549 84.4414 13.4329ZM83.3255 11.8129V11.0859C82.1399 11.0659 81.547 11.3829 81.547 12.0359C81.547 12.2819 81.6147 12.4659 81.7532 12.5889C81.8917 12.7119 82.0681 12.7729 82.2783 12.7729C82.5142 12.7729 82.7347 12.6999 82.9358 12.5549C83.1378 12.4089 83.2619 12.2239 83.3081 11.9969C83.3193 11.9459 83.3255 11.8839 83.3255 11.8129Z"
        fill="white" />
    <path
        d="M90.5485 13.433H89.5946L89.5444 12.676H89.5146C89.21 13.252 88.691 13.54 87.9618 13.54C87.3793 13.54 86.8941 13.317 86.5095 12.871C86.1249 12.425 85.9331 11.846 85.9331 11.135C85.9331 10.372 86.1413 9.75403 86.5598 9.28203C86.9649 8.84203 87.4613 8.62203 88.0521 8.62203C88.7013 8.62203 89.1557 8.83503 89.4141 9.26203H89.4346V6.55603H90.5105V12.163C90.5105 12.622 90.5228 13.045 90.5485 13.433ZM89.4346 11.445V10.659C89.4346 10.523 89.4244 10.413 89.4049 10.329C89.3444 10.077 89.2141 9.86503 89.0162 9.69403C88.8162 9.52303 88.5751 9.43703 88.2972 9.43703C87.8962 9.43703 87.5823 9.59203 87.3516 9.90303C87.1228 10.214 87.0069 10.611 87.0069 11.096C87.0069 11.562 87.1167 11.94 87.3372 12.231C87.57 12.541 87.8839 12.696 88.2767 12.696C88.6295 12.696 88.9116 12.567 89.1259 12.308C89.3331 12.069 89.4346 11.781 89.4346 11.445Z"
        fill="white" />
    <path
        d="M99.7417 11.037C99.7417 11.762 99.5294 12.356 99.1048 12.822C98.6597 13.301 98.071 13.54 97.3335 13.54C96.6248 13.54 96.0597 13.311 95.6371 12.851C95.2166 12.392 95.0063 11.813 95.0063 11.115C95.0063 10.385 95.2228 9.78605 95.6576 9.32105C96.0925 8.85605 96.6771 8.62305 97.4145 8.62305C98.1233 8.62305 98.6946 8.85205 99.1253 9.31105C99.5356 9.75705 99.7417 10.333 99.7417 11.037ZM98.6279 11.071C98.6279 10.636 98.5315 10.263 98.3397 9.95205C98.113 9.57605 97.793 9.38805 97.3746 9.38805C96.9438 9.38805 96.6156 9.57605 96.3889 9.95205C96.1961 10.263 96.1007 10.642 96.1007 11.09C96.1007 11.525 96.1971 11.898 96.3889 12.209C96.6217 12.585 96.9458 12.773 97.3643 12.773C97.7746 12.773 98.0976 12.582 98.3294 12.199C98.5274 11.882 98.6279 11.506 98.6279 11.071Z"
        fill="white" />
    <path
        d="M105.521 13.433H104.447V10.733C104.447 9.901 104.123 9.485 103.472 9.485C103.153 9.485 102.895 9.599 102.696 9.828C102.498 10.057 102.398 10.327 102.398 10.636V13.432H101.322V10.066C101.322 9.652 101.31 9.203 101.284 8.717H102.228L102.278 9.454H102.308C102.434 9.225 102.621 9.036 102.865 8.885C103.157 8.709 103.482 8.62 103.84 8.62C104.29 8.62 104.666 8.762 104.964 9.047C105.336 9.396 105.521 9.917 105.521 10.609V13.433V13.433Z"
        fill="white" />
    <path
        d="M112.755 9.50404H111.571V11.794C111.571 12.376 111.781 12.667 112.198 12.667C112.391 12.667 112.551 12.651 112.677 12.618L112.704 13.413C112.492 13.491 112.213 13.53 111.87 13.53C111.445 13.53 111.115 13.404 110.876 13.152C110.636 12.9 110.517 12.476 110.517 11.881V9.50404H109.81V8.71904H110.517V7.85504L111.57 7.54504V8.71804H112.754V9.50404H112.755Z"
        fill="white" />
    <path
        d="M118.445 13.433H117.369V10.753C117.369 9.90803 117.045 9.48503 116.396 9.48503C115.897 9.48503 115.557 9.73003 115.37 10.22C115.338 10.323 115.32 10.449 115.32 10.597V13.432H114.246V6.55603H115.32V9.39703H115.34C115.679 8.88003 116.164 8.62203 116.793 8.62203C117.238 8.62203 117.606 8.76403 117.898 9.04903C118.263 9.40403 118.445 9.93203 118.445 10.63V13.433V13.433Z"
        fill="white" />
    <path
        d="M124.315 10.8529C124.315 11.0409 124.301 11.1989 124.275 11.3279H121.051C121.066 11.7939 121.22 12.1489 121.518 12.3949C121.791 12.6149 122.143 12.7249 122.574 12.7249C123.05 12.7249 123.485 12.6509 123.877 12.5019L124.045 13.2299C123.587 13.4239 123.047 13.5209 122.423 13.5209C121.674 13.5209 121.084 13.3059 120.658 12.8759C120.229 12.4459 120.017 11.8689 120.017 11.1449C120.017 10.4339 120.215 9.84189 120.614 9.36989C121.03 8.86589 121.593 8.61389 122.304 8.61389C122.999 8.61389 123.527 8.86589 123.884 9.36989C124.172 9.76989 124.315 10.2649 124.315 10.8529ZM123.289 10.5819C123.298 10.2709 123.227 10.0029 123.081 9.77689C122.895 9.48589 122.61 9.33989 122.226 9.33989C121.875 9.33989 121.589 9.48189 121.37 9.76689C121.192 9.99389 121.086 10.2649 121.051 10.5819H123.289Z"
        fill="white" />
</svg>