<svg width="139" height="40" viewBox="0 0 139 40" fill="none" xmlns="http://www.w3.org/2000/svg">
    <path
        d="M133.15 40H5.12116C2.3058 40 0 37.7487 0 35V5C0 2.25125 2.3058 2.11397e-06 5.12116 2.11397e-06H133.15C135.965 2.11397e-06 138.271 2.25125 138.271 5V35C138.271 37.7487 135.965 40 133.15 40Z"
        fill="black" />
    <path
        d="M133.15 0.801252C135.521 0.801252 137.451 2.685 137.451 5V35C137.451 37.315 135.521 39.1988 133.15 39.1988H5.12116C2.75006 39.1988 0.820665 37.315 0.820665 35V5C0.820665 2.685 2.75006 0.801252 5.12116 0.801252H133.15ZM133.15 2.11397e-06H5.12116C2.3058 2.11397e-06 0 2.25125 0 5V35C0 37.7487 2.3058 40 5.12116 40H133.15C135.965 40 138.271 37.7487 138.271 35V5C138.271 2.25125 135.965 2.11397e-06 133.15 2.11397e-06Z"
        fill="#A6A6A6" />
    <path
        d="M48.5665 10.2437C48.5665 11.0787 48.3104 11.7475 47.806 12.2462C47.226 12.8375 46.4706 13.135 45.545 13.135C44.6603 13.135 43.9049 12.8325 43.2853 12.2362C42.6643 11.6312 42.3545 10.8887 42.3545 9.99999C42.3545 9.11124 42.6643 8.36874 43.2853 7.76874C43.9049 7.16749 44.6603 6.86499 45.545 6.86499C45.9854 6.86499 46.4053 6.95374 46.8061 7.11874C47.2055 7.28499 47.5307 7.50999 47.7663 7.78749L47.2311 8.31499C46.8201 7.84124 46.2607 7.60749 45.545 7.60749C44.8997 7.60749 44.3402 7.82749 43.8652 8.27124C43.3954 8.71624 43.1598 9.29249 43.1598 9.99999C43.1598 10.7075 43.3954 11.2887 43.8652 11.7337C44.3402 12.1725 44.8997 12.3975 45.545 12.3975C46.2299 12.3975 46.8061 12.1725 47.2606 11.7287C47.5601 11.435 47.7304 11.03 47.7752 10.5125H45.545V9.78999H48.5204C48.5562 9.94624 48.5665 10.0975 48.5665 10.2437Z"
        fill="white" stroke="white" stroke-width="0.16" stroke-miterlimit="10" />
    <path
        d="M53.2868 7.73881H50.4919V9.63881H53.0115V10.3613H50.4919V12.2613H53.2868V12.9976H49.7007V7.00256H53.2868V7.73881Z"
        fill="white" stroke="white" stroke-width="0.16" stroke-miterlimit="10" />
    <path d="M56.6183 12.9976H55.8271V7.73881H54.1128V7.00256H58.3339V7.73881H56.6183V12.9976Z" fill="white"
        stroke="white" stroke-width="0.16" stroke-miterlimit="10" />
    <path d="M61.3887 12.9974V7.00244H62.1786V12.9974H61.3887Z" fill="white" stroke="white" stroke-width="0.16"
        stroke-miterlimit="10" />
    <path d="M65.6803 12.9974H64.8955V7.73869H63.1748V7.00244H67.401V7.73869H65.6803V12.9974Z" fill="white"
        stroke="white" stroke-width="0.16" stroke-miterlimit="10" />
    <path
        d="M75.3923 12.2262C74.7867 12.8325 74.0364 13.135 73.1415 13.135C72.2415 13.135 71.4912 12.8325 70.8856 12.2262C70.2813 11.6212 69.9805 10.8787 69.9805 9.99999C69.9805 9.12124 70.2813 8.37874 70.8856 7.77374C71.4912 7.16749 72.2415 6.86499 73.1415 6.86499C74.0313 6.86499 74.7816 7.16749 75.3871 7.77874C75.9966 8.38874 76.2974 9.12624 76.2974 9.99999C76.2974 10.8787 75.9966 11.6212 75.3923 12.2262ZM71.4707 11.7237C71.9265 12.1725 72.4809 12.3975 73.1415 12.3975C73.797 12.3975 74.3565 12.1725 74.8072 11.7237C75.2617 11.275 75.4921 10.6987 75.4921 9.99999C75.4921 9.30124 75.2617 8.72499 74.8072 8.27624C74.3565 7.82749 73.797 7.60249 73.1415 7.60249C72.4809 7.60249 71.9265 7.82749 71.4707 8.27624C71.0162 8.72499 70.7858 9.30124 70.7858 9.99999C70.7858 10.6987 71.0162 11.275 71.4707 11.7237Z"
        fill="white" stroke="white" stroke-width="0.16" stroke-miterlimit="10" />
    <path
        d="M77.4077 12.9974V7.00244H78.3679L81.3536 11.6649H81.3881L81.3536 10.5124V7.00244H82.1435V12.9974H81.319L78.1925 8.10494H78.158L78.1925 9.26244V12.9974H77.4077Z"
        fill="white" stroke="white" stroke-width="0.16" stroke-miterlimit="10" />
    <path
        d="M69.7857 21.7525C67.3801 21.7525 65.4148 23.54 65.4148 26.0063C65.4148 28.4525 67.3801 30.2588 69.7857 30.2588C72.1965 30.2588 74.1617 28.4525 74.1617 26.0063C74.1617 23.54 72.1965 21.7525 69.7857 21.7525ZM69.7857 28.5838C68.4657 28.5838 67.3301 27.52 67.3301 26.0063C67.3301 24.4725 68.4657 23.4275 69.7857 23.4275C71.1057 23.4275 72.2464 24.4725 72.2464 26.0063C72.2464 27.52 71.1057 28.5838 69.7857 28.5838ZM60.2488 21.7525C57.8381 21.7525 55.8779 23.54 55.8779 26.0063C55.8779 28.4525 57.8381 30.2588 60.2488 30.2588C62.6583 30.2588 64.6197 28.4525 64.6197 26.0063C64.6197 23.54 62.6583 21.7525 60.2488 21.7525ZM60.2488 28.5838C58.9276 28.5838 57.7881 27.52 57.7881 26.0063C57.7881 24.4725 58.9276 23.4275 60.2488 23.4275C61.5688 23.4275 62.7044 24.4725 62.7044 26.0063C62.7044 27.52 61.5688 28.5838 60.2488 28.5838ZM48.9004 23.0563V24.8638H53.3212C53.1919 25.8738 52.8462 26.6163 52.3162 27.1338C51.6709 27.7588 50.6659 28.4525 48.9004 28.4525C46.1798 28.4525 44.0494 26.3088 44.0494 23.6525C44.0494 20.9963 46.1798 18.8525 48.9004 18.8525C50.3714 18.8525 51.4417 19.4138 52.2317 20.1413L53.5363 18.8675C52.4314 17.8375 50.9616 17.0463 48.9004 17.0463C45.1696 17.0463 42.0342 20.01 42.0342 23.6525C42.0342 27.295 45.1696 30.2588 48.9004 30.2588C50.9168 30.2588 52.4314 29.6138 53.6221 28.4038C54.8422 27.2125 55.2224 25.5375 55.2224 24.185C55.2224 23.765 55.1866 23.3788 55.1226 23.0563H48.9004ZM95.3057 24.4575C94.9459 23.5063 93.8359 21.7525 91.5749 21.7525C89.3344 21.7525 87.4691 23.4763 87.4691 26.0063C87.4691 28.3888 89.3152 30.2588 91.79 30.2588C93.7911 30.2588 94.9459 29.0675 95.4209 28.3738L93.9358 27.4075C93.4403 28.115 92.7656 28.5838 91.79 28.5838C90.8209 28.5838 90.1257 28.15 89.6801 27.295L95.5067 24.9413L95.3057 24.4575ZM89.3652 25.8738C89.3152 24.2338 90.6698 23.3938 91.6402 23.3938C92.4007 23.3938 93.046 23.765 93.2611 24.2963L89.3652 25.8738ZM84.6294 30H86.5447V17.5H84.6294V30ZM81.4927 22.7H81.4287C80.9985 22.2025 80.1778 21.7525 79.1382 21.7525C76.9566 21.7525 74.9619 23.6225 74.9619 26.02C74.9619 28.4038 76.9566 30.2588 79.1382 30.2588C80.1778 30.2588 80.9985 29.805 81.4287 29.2925H81.4927V29.9025C81.4927 31.5288 80.6029 32.4025 79.1677 32.4025C77.9975 32.4025 77.2716 31.5775 76.972 30.8838L75.3063 31.5625C75.7864 32.69 77.0578 34.0775 79.1677 34.0775C81.4133 34.0775 83.3081 32.7875 83.3081 29.6488V22.0113H81.4927V22.7ZM79.3021 28.5838C77.9821 28.5838 76.8772 27.505 76.8772 26.02C76.8772 24.5213 77.9821 23.4275 79.3021 23.4275C80.6029 23.4275 81.6284 24.5213 81.6284 26.02C81.6284 27.505 80.6029 28.5838 79.3021 28.5838ZM104.273 17.5H99.692V30H101.602V25.2638H104.273C106.394 25.2638 108.475 23.765 108.475 21.3813C108.475 18.9988 106.389 17.5 104.273 17.5ZM104.323 23.525H101.602V19.2388H104.323C105.749 19.2388 106.563 20.395 106.563 21.3813C106.563 22.3488 105.749 23.525 104.323 23.525ZM116.131 21.7288C114.751 21.7288 113.316 22.3238 112.725 23.6425L114.42 24.3363C114.785 23.6425 115.456 23.4175 116.165 23.4175C117.156 23.4175 118.161 23.9988 118.177 25.025V25.1563C117.831 24.9613 117.091 24.6725 116.181 24.6725C114.355 24.6725 112.495 25.6538 112.495 27.485C112.495 29.16 113.99 30.2388 115.671 30.2388C116.957 30.2388 117.666 29.6725 118.111 29.0138H118.177V29.98H120.022V25.185C120.022 22.9688 118.327 21.7288 116.131 21.7288ZM115.9 28.5788C115.276 28.5788 114.405 28.2763 114.405 27.52C114.405 26.5525 115.491 26.1813 116.43 26.1813C117.272 26.1813 117.666 26.3625 118.177 26.6013C118.027 27.7588 117.007 28.5788 115.9 28.5788ZM126.743 22.0025L124.547 27.4213H124.482L122.212 22.0025H120.152L123.563 29.575L121.617 33.7888H123.613L128.868 22.0025H126.743ZM109.525 30H111.44V17.5H109.525V30Z"
        fill="white" />
    <path
        d="M10.6879 7.53881C10.387 7.84631 10.2129 8.32506 10.2129 8.94506V31.0601C10.2129 31.6801 10.387 32.1588 10.6879 32.4663L10.7621 32.5338L23.4549 20.1463V19.8538L10.7621 7.46631L10.6879 7.53881Z"
        fill="url(#paint0_linear_7619_66054)" />
    <path
        d="M27.6808 24.2775L23.4546 20.1462V19.8537L27.6859 15.7225L27.7807 15.7762L32.7917 18.56C34.2218 19.35 34.2218 20.65 32.7917 21.445L27.7807 24.2237L27.6808 24.2775Z"
        fill="url(#paint1_linear_7619_66054)" />
    <path
        d="M27.7806 24.2238L23.4545 20.0001L10.6875 32.4663C11.1625 32.9538 11.9371 33.0126 12.8179 32.5251L27.7806 24.2238Z"
        fill="url(#paint2_linear_7619_66054)" />
    <path d="M27.7806 15.7763L12.8179 7.475C11.9371 6.9925 11.1625 7.05125 10.6875 7.53875L23.4545 20L27.7806 15.7763Z"
        fill="url(#paint3_linear_7619_66054)" />
    <defs>
        <linearGradient id="paint0_linear_7619_66054" x1="22.328" y1="31.2904" x2="5.55036" y2="14.1062"
            gradientUnits="userSpaceOnUse">
            <stop stop-color="#00A0FF" />
            <stop offset="0.0066" stop-color="#00A1FF" />
            <stop offset="0.2601" stop-color="#00BEFF" />
            <stop offset="0.5122" stop-color="#00D2FF" />
            <stop offset="0.7604" stop-color="#00DFFF" />
            <stop offset="1" stop-color="#00E3FF" />
        </linearGradient>
        <linearGradient id="paint1_linear_7619_66054" x1="34.6539" y1="19.9986" x2="9.87073" y2="19.9986"
            gradientUnits="userSpaceOnUse">
            <stop stop-color="#FFE000" />
            <stop offset="0.4087" stop-color="#FFBD00" />
            <stop offset="0.7754" stop-color="#FFA500" />
            <stop offset="1" stop-color="#FF9C00" />
        </linearGradient>
        <linearGradient id="paint2_linear_7619_66054" x1="25.4282" y1="17.704" x2="2.67646" y2="-5.59908"
            gradientUnits="userSpaceOnUse">
            <stop stop-color="#FF3A44" />
            <stop offset="1" stop-color="#C31162" />
        </linearGradient>
        <linearGradient id="paint3_linear_7619_66054" x1="7.47377" y1="39.8238" x2="17.6335" y2="29.418"
            gradientUnits="userSpaceOnUse">
            <stop stop-color="#32A071" />
            <stop offset="0.0685" stop-color="#2DA771" />
            <stop offset="0.4762" stop-color="#15CF74" />
            <stop offset="0.8009" stop-color="#06E775" />
            <stop offset="1" stop-color="#00F076" />
        </linearGradient>
    </defs>
</svg>