<svg width="90" height="40" viewBox="0 0 90 40" fill="none" xmlns="http://www.w3.org/2000/svg">
<path d="M27.7487 31.2969L27.8346 24.2047H32.5628V25.1933H28.9092V27.1275H32.047V28.1161H28.8232V30.3513H32.6917L32.6488 31.2969H27.7487ZM34.626 28.6319L34.669 24.3336H35.7436V28.546C35.7006 29.7065 36.1734 30.6092 37.7208 30.6092C39.2252 30.6092 39.6551 29.7925 39.6551 28.589L39.698 24.3766H40.7726V28.6749C40.7726 30.3943 39.784 31.5978 37.5919 31.5548C35.4427 31.5548 34.583 30.1793 34.626 28.6319ZM42.7928 31.4259L42.8788 24.3336H44.899C46.7903 24.3336 47.8219 25.0213 47.8219 26.4398C47.8219 27.2995 47.3061 27.9872 46.4034 28.3311L48.5526 31.3399V31.4688H47.3491L45.4578 28.8039H43.9104V31.4688H42.7928V31.4259ZM45.8017 27.8582C46.2745 27.6003 46.7043 27.2135 46.7473 26.4828C46.7473 25.6231 46.2745 25.2792 44.899 25.2792H43.9534V27.8582H45.8017ZM49.3263 27.9442C49.3263 26.0529 50.6158 24.2906 53.0659 24.3336C55.4729 24.3336 56.7195 26.1389 56.6765 28.0302C56.6765 29.9214 55.387 31.6838 52.9799 31.6408C50.5728 31.6408 49.3263 29.8355 49.3263 27.9442ZM55.5589 27.9872C55.5589 26.4398 54.6992 25.2792 53.0659 25.2363C51.3895 25.2363 50.4869 26.3968 50.4869 27.9442C50.4869 29.4916 51.3465 30.6951 53.0229 30.6951C54.6562 30.6951 55.5589 29.5346 55.5589 27.9872ZM57.966 31.2539V30.2223H58.0949C58.7397 30.5232 59.5993 30.7381 60.2871 30.7381C61.5766 30.7381 62.1783 30.3943 62.1783 29.7065C62.1783 29.0618 61.6625 28.7179 60.8888 28.46L59.7713 28.0732C58.7397 27.7293 58.2669 27.1275 58.2669 26.2249C58.2669 25.0213 59.4274 24.3766 61.0608 24.3766C61.7485 24.3766 62.6941 24.5485 63.167 24.8064V25.7521H63.038C62.3933 25.4942 61.5766 25.3222 61.0608 25.3222C59.9862 25.3222 59.3414 25.5371 59.3414 26.1819C59.3414 26.8266 59.8143 27.0416 60.373 27.2135L61.4476 27.6433C62.4792 27.9872 63.2529 28.503 63.2529 29.6635C63.2529 30.953 62.0924 31.7267 60.2441 31.7267C59.3844 31.7267 58.6107 31.5548 57.966 31.2539ZM66.9065 31.6838L66.9925 25.4942H64.4565V24.5485H70.5601V25.5371L68.0671 25.4942L68.0241 31.6838H66.9065ZM70.5171 31.6838V31.6408L73.311 24.6775H74.6865L77.2225 31.6838V31.8127H76.062L75.4172 29.8785H72.3224L71.5917 31.7697H70.5171V31.6838ZM75.0734 28.8898L73.9558 25.6231L72.6663 28.8898H75.0734ZM78.8559 31.7697L78.8989 24.6775H80.9621C82.8533 24.6775 83.8849 25.3652 83.8849 26.7837C83.8849 27.6433 83.3691 28.2881 82.4665 28.6749L84.6157 31.6838V31.8127H83.4121L81.4779 29.0618H79.9305V31.7267H78.8129L78.8559 31.7697ZM81.8647 28.2021C82.2946 27.9442 82.7674 27.5144 82.7674 26.8266C82.7674 25.924 82.3375 25.6231 80.9191 25.6231H80.0164L79.9735 28.2021H81.8217H81.8647ZM85.8192 26.4828V25.0213H85.3894V24.7634H86.7218V25.0643H86.249V26.5687H85.8192V26.4828ZM88.5701 26.5258V25.3222L88.1403 26.0529H87.9254L87.4955 25.3222L87.4526 26.5258H87.0657V24.7205H87.4955L88.0543 25.5801L88.5701 24.7205H89L88.957 26.5258H88.5271H88.5701Z" fill="black"/>
<path d="M26.8897 15.2642C27.3434 14.7166 27.7194 14.1092 28.0072 13.4589L28.0932 12.9431L28.1362 12.3843C28.1792 9.97724 25.8581 8 23.0212 8H22.5054C18.7658 8 16.1438 10.2781 14.7254 11.6536C11.6774 14.5355 9.7059 18.3724 9.13753 22.5284C7.17519 23.249 5.14446 23.7674 3.07687 24.0758H2.2172C2.04527 24.0758 2.00229 24.3337 2.00229 24.4196C1.9593 24.8925 2.51809 25.6232 4.06549 25.6232C5.26902 25.6232 7.07432 25.2363 8.96559 24.7205V24.5486C8.96559 26.6548 9.39543 28.5461 10.3411 29.7066C10.8998 30.4373 12.0604 30.7382 13.006 30.8242C14.1666 30.9531 15.4131 30.7382 16.5307 30.3943C18.927 29.5475 21.1753 28.3291 23.1931 26.7837L24.0528 26.139L24.6115 25.7092L25.3852 25.0214L25.6431 24.7635C25.7291 24.6346 25.7721 24.4626 25.7721 24.2907L25.7291 24.0758L25.6861 23.9898H25.5572L24.9554 24.3337L24.3536 24.6346L23.7519 24.9354C23.365 25.0644 23.0212 25.2793 22.6343 25.4513L22.1615 25.6232C20.872 26.182 19.6685 26.6978 18.4219 27.1276C17.0894 27.5574 15.0262 28.1162 14.1666 26.6118C13.8227 26.01 13.8227 25.3223 13.8227 24.6346C13.8227 24.0758 13.8657 23.56 13.9517 23.0442L16.3587 22.0985L20.829 20.3792C21.6027 20.0783 22.4194 19.7345 23.2361 19.4766L25.3852 18.7888C27.8313 18.0204 30.4276 17.8582 32.9503 18.316C35.226 18.6504 37.4594 19.2268 39.6127 20.0353C41.8837 20.7019 44.217 21.134 46.576 21.3248L47.7796 21.3678C51.1792 21.4281 54.5425 20.661 57.5798 19.1327L57.7517 19.0467C58.8408 18.4803 59.8402 17.7561 60.7176 16.8976C60.8895 16.6826 61.1044 16.5107 61.1474 16.2958V15.866C61.1474 15.823 61.1044 15.737 61.0185 15.78L60.3737 16.1239L58.9553 16.7256C57.9237 17.1555 56.8921 17.4993 55.8175 17.6713C52.8086 18.273 49.6279 18.445 46.619 18.0151C43.6102 17.6283 40.6873 16.7256 37.7215 16.1239C35.8718 15.79 34.007 15.5461 32.1336 15.3931H29.2967L26.4598 15.737C26.4168 15.694 26.4598 15.651 26.4598 15.651C26.6305 15.5563 26.7775 15.424 26.8897 15.2642ZM23.5799 15.694C21.8606 17.3274 20.3992 17.7572 18.25 18.7029L14.3815 20.4222C15.0692 18.23 16.1868 16.1239 17.5623 14.2756C18.25 13.3299 18.8518 12.8141 19.7544 12.0404C20.958 11.1378 22.9782 10.1922 24.2677 11.5246C24.5115 11.8121 24.6881 12.1503 24.7848 12.5147C24.8815 12.879 24.8957 13.2603 24.8265 13.6308C24.6975 14.5335 24.3107 15.0493 23.5799 15.694Z" fill="#25B5C9"/>
</svg>
