<svg width="90" height="40" viewBox="0 0 90 40" fill="none" xmlns="http://www.w3.org/2000/svg">
<path fill-rule="evenodd" clip-rule="evenodd" d="M40.8168 11.9439C41.3743 11.9439 41.8204 12.2279 42.2106 12.6257L49.3469 19.8413C50.7407 21.2617 52.246 22.0003 54.3646 22.0003H67.5221L62.6717 26.8865H50.2947C49.6257 26.8865 49.1796 26.7161 48.7894 26.3184L41.6531 19.1595C41.0165 18.4554 40.2393 17.8984 39.3738 17.526C38.5083 17.1536 37.5745 16.9744 36.6354 17.0005H23.4779L28.3283 11.9439H40.7611H40.8168ZM45.723 9.10304C45.0814 8.42489 44.3099 7.88835 43.4563 7.52672C42.6027 7.16509 41.6853 6.9861 40.7611 7.00084H26.377L14 19.4436L26.377 32H33.346L23.4779 22.0003H36.6912C37.2487 22.0003 37.8062 22.114 38.1965 22.5685L45.277 29.8978C46.6708 31.3182 48.3434 32 50.1832 32H64.7345L77 19.4436L64.7345 7.00084H57.654L67.5221 17.0005H54.3088C53.7513 17.0005 53.3611 16.7164 52.915 16.4323" fill="#333399"/>
</svg>
