<svg width="90" height="40" viewBox="0 0 90 40" fill="none" xmlns="http://www.w3.org/2000/svg">
<path d="M63.4447 36C65.901 36 68 33.9556 68 31.3778V8.57778C68 6 65.901 4 63.4447 4H26.6447C24.099 4 22 6 22 8.57778V31.3778C22 33.9556 24.099 36 26.6447 36H63.4447ZM63.4447 32.7111H26.6447C25.8854 32.7111 25.3495 32.1333 25.3495 31.3778V8.57778C25.3495 7.82222 25.8854 7.24444 26.6447 7.24444H63.4447C64.1592 7.24444 64.6505 7.82222 64.6505 8.57778V31.3778C64.6505 32.1333 64.1592 32.7111 63.4447 32.7111ZM54.8699 30.4889C58.666 30.4889 62.2388 28.7111 62.2388 24.4C62.2388 21.7778 60.4971 20.2222 57.9068 19.5111C59.7825 18.6222 61.4796 17.1556 61.4796 15.0667C61.4796 11.1556 59.2466 9.51111 55.2272 9.51111H46.6971V30.4889H54.8699ZM36.068 30.4889C42.499 30.4444 44.4194 25.9556 44.4194 19.9111C44.4194 12.9333 41.5165 9.51111 36.068 9.51111H28.3417V30.4889H36.068ZM53.4854 17.8222H51.699V12.7556H53.0835C54.7359 12.7556 56.299 13.2889 56.299 15.2889C56.299 17.0667 55.0932 17.8222 53.4408 17.8222H53.4854ZM35.1748 27.0667H33.3883V12.8889H34.4155C38.9709 12.8444 39.4175 16.1333 39.4175 20.3556C39.4175 24.9333 37.8544 27.0667 35.1748 27.0667V27.0667ZM53.4854 27.0667H51.699V21.7778H53.5301C55.5398 21.7778 56.8796 22.2222 56.8796 24.3556C56.8796 26.5778 55.3165 27.1111 53.4854 27.1111V27.0667Z" fill="#E30613"/>
</svg>
