<svg width="90" height="40" viewBox="0 0 90 40" fill="none" xmlns="http://www.w3.org/2000/svg">
<path d="M22.7331 31.9995C24.9912 32.0134 27.2058 31.367 29.1144 30.1368C31.023 28.9067 32.5456 27.1444 33.5016 25.059C34.4575 22.9736 34.8068 20.6524 34.508 18.3708C34.2092 16.0891 33.2749 13.9427 31.8158 12.1859L28.5914 15.7968C29.5889 17.1976 30.0596 18.9169 29.9179 20.6418C29.7762 22.3666 29.0315 23.9822 27.8194 25.1944C27.1519 25.8844 26.3565 26.4324 25.4794 26.8064C24.6023 27.1804 23.6611 27.3729 22.7104 27.3729C21.7597 27.3729 20.8185 27.1804 19.9414 26.8064C19.0644 26.4324 18.269 25.8844 17.6014 25.1944C16.6196 24.1687 15.9528 22.873 15.6829 21.4665C15.4131 20.06 15.5519 18.6038 16.0823 17.2766C16.6128 15.9493 17.5118 14.8088 18.669 13.995C19.8262 13.1811 21.1914 12.7294 22.5969 12.6951L26.3208 8.52873C23.808 7.74499 21.1109 7.83467 18.6536 8.78369C16.1963 9.73271 14.118 11.4872 12.7454 13.7715C11.3729 16.0558 10.7839 18.7402 11.071 21.4029C11.3581 24.0655 12.5051 26.5555 14.3317 28.4812C15.4403 29.6096 16.7581 30.5017 18.2082 31.1058C19.6584 31.7098 21.212 32.0136 22.7785 31.9995H22.7331ZM70.9619 31.4903C72.4151 31.4903 75.0036 31.2588 76.5931 29.9163C78.6367 28.1572 79 26.2591 79 25.1018C79 22.3705 77.6376 20.3799 76.2298 19.3151C76.9056 18.7551 77.4515 18.0497 77.8284 17.2493C78.2053 16.449 78.4037 15.5735 78.4096 14.6858C78.4096 13.7136 77.9555 8.66761 70.0536 8.66761H60.4714V31.5366H70.9165L70.9619 31.4903ZM48.8457 31.4903C50.3443 31.4903 52.9329 31.2588 54.5223 29.9163C56.5659 28.1572 56.9292 26.2591 56.9292 25.1018C56.9292 22.3705 55.5214 20.3799 54.159 19.3151C54.8348 18.7551 55.3807 18.0497 55.7576 17.2493C56.1345 16.449 56.333 15.5735 56.3388 14.6858C56.3388 13.7136 55.8847 8.66761 47.9828 8.66761H38.4007V31.5366H48.8457V31.4903ZM25.14 17.7874L33.3598 8.66761H27.8648L19.5996 17.7874H25.14ZM70.644 17.7874H65.1944V12.5563H70.9165C72.5513 12.5563 73.8683 13.1581 73.8683 15.1487C73.8683 16.9541 72.6876 17.7411 70.6894 17.7411L70.644 17.7874ZM48.5732 17.7874H43.1236V12.5563H48.8457C50.4806 12.5563 51.7975 13.1581 51.7975 15.1487C51.7975 16.9541 50.6168 17.7411 48.6186 17.7411L48.5732 17.7874ZM70.9165 27.5554H65.2398V21.6761H71.7339C72.6422 21.6761 74.4587 21.815 74.4587 24.3611C74.4587 27.4628 72.3243 27.5554 70.9165 27.6016V27.5554ZM48.8457 27.5554H43.1236V21.6761H49.6177C50.526 21.6761 52.3425 21.815 52.3425 24.3611C52.3425 27.4628 50.2081 27.5554 48.8003 27.6016L48.8457 27.5554Z" fill="#E2002A"/>
</svg>
