<svg width="90" height="40" viewBox="0 0 90 40" fill="none" xmlns="http://www.w3.org/2000/svg">
<path d="M63.7661 6.64724C65.2033 5.61709 67.2432 4.91471 69.7931 5.00836L68.9122 6.27264C66.965 6.27264 65.7596 7.91152 65.3887 9.03532C65.0179 10.1591 64.8788 11.2829 64.3688 13.9988H67.6604L66.7796 15.2631C64.9251 15.2631 63.9979 16.1996 63.7197 17.9789C63.2561 20.4138 62.4216 25.5178 62.3289 25.7519C61.8653 28.6551 60.8453 31.3709 58.1564 33.3376C56.3858 34.5502 54.2635 35.1273 52.1294 34.9764L53.0103 33.7122C54.9575 33.7122 56.1629 32.0733 56.4874 30.9963C56.951 29.6852 57.1364 28.2805 57.6001 25.6114L59.6399 13.9051C60.1036 10.9552 61.0308 8.56707 63.8125 6.64724H63.7661ZM27.3725 13.9988C29.7833 13.671 31.6378 13.7178 33.6313 14.0924C36.3202 14.5607 36.9693 16.4337 36.1348 18.6813C35.3003 21.0226 32.4259 21.3503 30.9423 21.4908C29.227 21.6781 26.7698 21.7249 24.7763 21.4908C24.7763 21.4908 24.3591 24.2067 26.6308 24.5344C27.6971 24.7686 31.0814 24.8622 34.0485 24.3471L33.0286 25.7519C29.9224 26.2201 27.0016 26.3138 23.2927 26.0328C20.5111 25.7987 20.0475 23.7384 20.3256 21.4908C20.4183 20.2734 20.6965 18.9154 21.1601 17.7448C21.9946 15.6845 23.9418 14.467 27.3725 13.9988ZM74.3365 13.9988C76.7472 13.671 78.6017 13.7178 80.5952 14.0924C83.2842 14.5607 83.8869 16.4337 83.0987 18.6813C82.2642 21.0226 79.3898 21.3503 77.9063 21.4908C76.1909 21.6781 73.7338 21.7249 71.7402 21.4908C71.7402 21.4908 71.2766 24.2067 73.5483 24.5344C74.661 24.7686 77.999 24.8622 80.9661 24.3471L79.9925 25.7519C76.8863 26.2201 73.9656 26.3138 70.2567 26.0328C67.475 25.7987 67.0114 23.7384 67.2432 21.4908C67.3823 20.2734 67.6604 18.9154 68.1241 17.7448C68.9586 15.6845 70.9057 14.467 74.3365 13.9988ZM51.0168 13.9988C54.123 13.9988 55.4211 15.8718 55.0038 18.3535L53.7057 25.986H48.8841L50.2286 18.2599C50.4604 16.5273 49.3941 15.4504 47.9106 15.4504H44.2944L42.4863 25.986H37.7111L39.751 13.9988H51.0168ZM12.5369 13.9988C14.855 13.6242 18.7493 13.8115 21.0674 13.9988L20.0011 15.4972C18.5175 15.3099 15.9213 15.1226 14.4841 15.4035C12.9078 15.6845 12.3979 16.5273 12.166 17.9789L10.7752 25.986H6L7.48356 17.2765C7.85445 15.1226 9.19893 14.467 12.5369 13.9988ZM30.9423 15.2162C30.2263 15.0414 29.4794 15.0414 28.7634 15.2162C28.0593 15.3468 27.4016 15.6621 26.8564 16.1306C26.3112 16.5991 25.8976 17.2043 25.6572 17.8853C25.4254 18.4003 25.1472 19.4305 25.0081 20.1797C26.7235 20.2734 28.2998 20.2734 29.5051 19.9924C30.6178 19.7583 31.4523 19.5242 32.055 18.1662C32.6114 16.9956 32.2405 15.4972 30.9423 15.2162ZM77.9063 15.2162C77.1755 15.0338 76.4117 15.0338 75.6809 15.2162C74.9853 15.3543 74.3372 15.673 73.8007 16.141C73.2641 16.609 72.8576 17.2102 72.6211 17.8853C72.3893 18.4003 72.0648 19.4305 71.972 20.1797C73.6874 20.2734 75.2173 20.2734 76.4691 19.9924C77.5354 19.7583 78.3699 19.5242 79.019 18.1662C79.5753 16.9956 79.2044 15.4972 77.9063 15.2162Z" fill="#830065"/>
</svg>
