<svg width="90" height="40" viewBox="0 0 90 40" fill="none" xmlns="http://www.w3.org/2000/svg">
<path d="M51.2028 11V28.0676H0V11H51.2028ZM34.5706 13.8301H31.2616L25.6014 19.5338L31.2616 25.194H34.5706L30.1295 20.84H35.7026V25.194H38.315V20.84H43.8445L39.4035 25.194H42.669L48.3291 19.5338L42.669 13.8736H39.3599L43.801 18.2276H38.315V13.8736H35.7026V18.2276H30.1295L34.5706 13.8736V13.8301Z" fill="#EC1B24"/>
<path d="M61.6556 25.7818C64.8776 25.7818 66.6191 24.1708 66.6191 21.9503C66.6191 19.2508 63.9197 18.6848 63.0489 18.4671C60.0882 17.7269 59.5222 17.5963 59.5222 16.682C59.5222 15.6805 60.48 15.3322 61.3073 15.3322C62.57 15.3322 63.5714 15.6805 63.6584 17.1174H66.2273C66.2273 14.3744 63.9197 13.2859 61.4379 13.2859C59.2609 13.2859 56.9533 14.4614 56.9533 16.8997C56.9533 19.1202 58.7385 19.8168 60.5236 20.2958C62.2652 20.7312 64.0938 20.9924 64.0938 22.2551C64.0938 23.4742 62.657 23.7354 61.7427 23.7354C60.3494 23.7354 59.1303 23.1258 59.1303 21.5584H56.5615C56.5615 24.4756 58.9997 25.7818 61.6556 25.7818ZM74.0209 25.5205C76.1979 25.5205 78.2443 24.4756 78.2443 22.0374C78.2443 20.557 77.5041 19.425 76.0673 18.9896C77.0687 18.5542 77.6782 17.6834 77.6782 16.5078C77.6782 14.3308 76.1108 13.5471 73.8467 13.5471H68.2301V25.5205H74.0209ZM85.7766 25.5205C87.9536 25.5205 90 24.4756 90 22.0374C90 20.557 89.2598 19.425 87.823 18.9896C88.8244 18.5542 89.434 17.6834 89.434 16.5078C89.434 14.3308 87.8665 13.5471 85.6025 13.5471H79.9859V25.5205H85.7766ZM73.542 18.38H70.8425V15.5935H73.3243C74.2386 15.5935 75.1094 15.8547 75.1094 16.9867C75.1094 17.9882 74.4563 18.38 73.542 18.38ZM85.2977 18.38H82.5982V15.5935H85.08C85.9943 15.5935 86.8651 15.8547 86.8651 16.9867C86.8651 17.9882 86.212 18.38 85.2542 18.38H85.2977ZM73.6726 23.4742H70.8425V20.1651H73.7161C74.8482 20.1651 75.6319 20.6876 75.6319 21.9067C75.6319 23.1258 74.7175 23.4742 73.6726 23.4742ZM85.4283 23.4742H82.5982V20.1651H85.4719C86.6039 20.1651 87.3876 20.6876 87.3876 21.9067C87.3876 23.1258 86.4733 23.4742 85.4283 23.4742Z" fill="#231F20"/>
</svg>
