<svg width="90" height="40" viewBox="0 0 90 40" fill="none" xmlns="http://www.w3.org/2000/svg">
<path d="M44.6078 34.9896C42.9095 34.8397 41.6187 34.4912 40.333 33.8354C38.4298 32.8646 37.0486 31.4817 35.9357 29.433C35.2309 28.1355 35.0111 27.8668 34.476 27.6487C34.2895 27.5727 34.2303 27.5692 32.7831 27.549C31.1479 27.5261 31.143 27.5255 30.7147 27.3032C29.9278 26.8947 29.0643 25.9225 28.3064 24.5919C28.0928 24.217 28.0489 24.0565 28.1492 24.0173C28.243 23.9805 33.3934 23.9941 33.9036 24.0325C35.4088 24.1456 36.4931 24.4989 37.3748 25.1634C38.0706 25.6878 38.5346 26.3186 39.2472 27.7086C39.7339 28.658 40.0541 29.0946 40.6182 29.5784C41.6134 30.4318 42.9251 31.0323 44.3838 31.3023C44.9189 31.4013 46.1379 31.3934 46.6935 31.2873C48.328 30.9751 49.7691 30.2392 50.7485 29.2164C51.144 28.8034 51.3337 28.5127 51.8465 27.5341C52.4452 26.3914 52.8374 25.8318 53.3527 25.3846C54.2876 24.5733 55.4416 24.1575 57.1048 24.0325C57.8198 23.9787 62.819 23.9836 62.8724 24.0381C62.9442 24.1114 62.919 24.1953 62.7191 24.5489C61.9503 25.9091 61.0515 26.9177 60.2493 27.3207C59.8291 27.5318 59.6766 27.549 58.2183 27.5497C56.8469 27.5503 56.6875 27.5645 56.3742 27.7143C55.9764 27.9044 55.6948 28.272 55.071 29.4154C54.4524 30.5493 53.9341 31.2613 53.1873 32.0032C52.6523 32.5347 52.3381 32.7949 51.737 33.2046C50.4078 34.1104 48.7988 34.7002 47.0414 34.9258C46.6458 34.9766 44.9607 35.0208 44.6078 34.9896ZM41.2243 27.409C40.9711 27.2724 40.6874 26.8237 40.4832 26.2368C39.8201 24.3312 37.9338 22.8367 35.5919 22.3614C34.7532 22.1912 34.7739 22.192 30.7319 22.1696L26.9053 22.1483L26.6986 22.0688C26.1929 21.8741 25.5489 21.3503 25.0517 20.7291C24.5767 20.1358 23.9541 19.0804 24.0027 18.9511C24.0238 18.895 24.4113 18.8919 30.171 18.902C36.2635 18.9126 36.3206 18.9134 36.7649 18.9881C39.1209 19.384 40.7793 20.4896 41.6257 22.2286C42.0223 23.0432 42.1565 23.7125 42.1849 25.0176C42.2139 26.3468 42.1306 26.9719 41.8839 27.2763C41.7194 27.4793 41.4537 27.5327 41.2243 27.409ZM49.3136 27.4302C48.936 27.2589 48.8139 26.7458 48.8145 25.3332C48.8149 24.4332 48.8449 23.994 48.9384 23.5208C49.156 22.4188 49.7561 21.3549 50.5714 20.6257C51.5287 19.7695 52.6999 19.2469 54.2411 18.9883C54.6882 18.9133 54.7384 18.9127 60.8326 18.902C66.6577 18.8918 66.9748 18.8944 66.9968 18.9529C67.0279 19.0355 66.83 19.4278 66.4877 19.9626C65.7731 21.079 65.0874 21.7435 64.3272 22.0562L64.1031 22.1483L60.2765 22.1696C56.1708 22.1924 56.2286 22.19 55.3121 22.382C54.8578 22.4771 54.051 22.7501 53.6318 22.9505C52.1506 23.6585 51.0087 24.8559 50.5372 26.1954C50.3934 26.6038 50.1882 27.0091 50.0293 27.1987C49.822 27.4459 49.5454 27.5354 49.3136 27.4302ZM46.9406 18.6822C46.6296 18.6423 46.6074 18.6311 46.6074 18.5141C46.6074 18.4301 46.633 18.4017 46.7701 18.3337C47.2289 18.1062 47.817 17.6358 48.1925 17.196C48.6439 16.6674 48.9328 16.0989 49.0994 15.4113C49.1718 15.1128 49.1726 15.0642 49.1837 10.1743L49.195 5.23867H50.7453H52.2956V10.1141C52.2956 13.3502 52.2832 15.1034 52.2587 15.328C52.2059 15.8106 52.082 16.2739 51.9015 16.6629C51.3944 17.7557 50.5353 18.3678 49.1592 18.6171C48.7141 18.6977 47.3689 18.7372 46.9406 18.6822ZM41.8154 17.7097C40.8066 17.6569 39.8372 17.4588 39.135 17.1622L38.8851 17.0565V16.0393C38.8851 15.4798 38.893 15.022 38.9027 15.022C38.9124 15.022 39.1025 15.0786 39.325 15.1477C40.1656 15.4089 41.1398 15.6142 41.8154 15.6726C42.1448 15.701 42.8769 15.6373 43.2053 15.5515C43.7522 15.4087 44.0748 15.1571 44.1787 14.7922C44.2978 14.374 44.1919 14.0006 43.8573 13.6591C43.4816 13.2755 42.9134 12.9699 41.6775 12.4867C40.5915 12.0621 40.1518 11.8256 39.5984 11.3686C39.1215 10.9747 38.6994 10.3058 38.5395 9.69043C38.428 9.26146 38.4078 8.42815 38.498 7.98347C38.8215 6.38936 40.0632 5.41207 42.1655 5.09711C43.5947 4.88297 45.0909 5.02687 46.254 5.49031L46.6074 5.63112V6.66661C46.6074 7.23612 46.6023 7.7021 46.5961 7.7021C46.5899 7.7021 46.4441 7.63983 46.2722 7.56372C45.7907 7.3505 45.0587 7.11201 44.5778 7.01165C44.1872 6.93013 44.0875 6.92256 43.6081 6.938C42.7747 6.96483 42.2961 7.13526 41.9345 7.53404C41.5043 8.0083 41.5502 8.60979 42.0524 9.08105C42.4423 9.44694 42.9252 9.68538 44.1046 10.0944C45.2434 10.4894 45.9897 10.9152 46.5733 11.5028C47.1884 12.1223 47.4692 12.7828 47.4692 13.6103C47.4692 15.9591 46.0339 17.3754 43.3668 17.6584C42.9869 17.6987 42.1404 17.7267 41.8154 17.7097Z" fill="black"/>
</svg>
