<svg width="90" height="40" viewBox="0 0 90 40" fill="none" xmlns="http://www.w3.org/2000/svg">
<path d="M71.2075 35.4222V35.3333L76.9145 18.0889C77.0972 17.4667 77.0058 17.1556 76.458 16.8C58.652 5.68889 32.1712 4.04445 19.7984 4H19.4331C17.6982 4 16.2372 4 15.1414 4.08889C14.5022 4.08889 14.0457 4.4 14 4.97778V35.0667C14 35.4667 14.3653 35.9556 14.9131 36H70.1117C70.5683 36 70.9792 36 71.2075 35.4222ZM53.4928 31.6444C48.8358 31.6444 45.5942 29.5111 45.092 26.3111H44.8637L43.2201 31.4667H39.8415C38.7458 27.4667 36.6912 23.6444 34.591 20.8L32.5365 26.9778L32.4452 27.0222L32.3539 26.9778C32.0343 26.0889 31.669 25.4667 30.482 24.6222L32.8104 17.5111H36.0064C38.5631 20.6222 40.6633 24.4 41.6678 27.2889L44.8637 17.5111H47.7857L46.7813 20.5778L46.8726 20.6222L47.0552 20.5778C48.1926 19.4803 49.5495 18.6221 51.0417 18.0563C52.5339 17.4906 54.1297 17.2293 55.73 17.2889C56.8714 17.2889 58.0128 17.3333 59.0172 17.4667L58.1954 19.7333C57.4192 19.6444 56.5518 19.6 55.6843 19.6C51.7122 19.5556 48.6989 21.4222 48.2423 24.4444C48.0597 25.6889 48.3336 26.8 49.1554 27.6444C50.1142 28.8889 51.8948 29.3333 54.1776 29.3333C55.2734 29.3333 56.2778 29.2444 57.0996 29.0667L60.8891 17.4667H72.1663L71.5271 19.5556H63.4915L62.3501 23.1111H69.0616L68.3768 25.1556H61.6653L59.8847 30.4889C59.2455 30.8444 56.5061 31.6 53.4928 31.6V31.6444ZM31.0755 28.5333C29.9797 30.7556 27.2404 31.7333 22.9943 31.6444C20.7115 31.6444 18.1091 30.8444 16.8307 30.2667L17.8808 28.0444C19.6157 28.9333 21.8072 29.4222 23.5878 29.4667C25.6424 29.5111 27.0577 29.1111 27.4686 28.2222C28.0165 27.0667 26.4642 26.2222 24.4553 25.2889C21.9442 24.1333 19.0679 22.7556 20.0723 20.2667C20.9854 18.1778 24.2727 17.1556 27.9709 17.2889C29.1123 17.2889 29.7971 17.3778 30.8016 17.5556L30.1167 19.6C29.3406 19.4222 28.7014 19.3333 27.7426 19.2889C25.9163 19.2889 23.8618 19.6889 23.4965 20.8C23.1769 21.7778 24.5466 22.2667 26.5555 23.2C29.1579 24.4 32.3539 25.8667 31.0755 28.5333Z" fill="url(#paint0_linear_3070_14715)"/>
<defs>
<linearGradient id="paint0_linear_3070_14715" x1="14" y1="2.144" x2="76.937" y2="2.144" gradientUnits="userSpaceOnUse">
<stop stop-color="#7C2270"/>
<stop offset="0.247" stop-color="#AA147E"/>
<stop offset="0.815" stop-color="#E41D25"/>
<stop offset="1" stop-color="#E41D25"/>
</linearGradient>
</defs>
</svg>
