<svg width="90" height="40" viewBox="0 0 90 40" fill="none" xmlns="http://www.w3.org/2000/svg">
<path d="M38.5915 28.4267C53.0957 22.4815 80.5128 20.1383 87.8915 20.3132L88 20.593C75.1957 21.2924 52.0106 25.0694 41.4128 29.7906C40.617 30.1054 40.3277 30.0704 39.8574 29.6507L38.5915 28.4267ZM59.9319 18.4946C60.8362 18.3547 61.234 18.5296 61.5957 18.9143L62.8617 20.1733C62.3191 20.1733 57.7255 20.7328 57.3277 20.8028C57.0383 20.8378 56.3872 20.8727 56.0617 20.7328L55.2298 19.9285C56.3149 19.4738 58.1596 18.7744 59.9319 18.5296V18.4946ZM59.3532 9.40187C68.2511 7.09371 69.3362 15.3821 67.383 17.6553C67.2383 17.9001 67.3106 17.9001 67.4915 17.9001L81.2362 19.299L81.3085 19.5088H66.0447C65.6106 19.5088 65.0681 19.1941 64.8511 18.9143L63.8745 17.5854C64.634 17.6553 65.5383 17.6553 65.8277 17.6553C66.1894 17.6553 66.5872 17.4105 66.5872 17.0608V15.6619C66.5872 15.522 66.6596 15.4171 66.7319 15.3821C66.8043 15.3821 66.8766 15.3821 66.9851 15.3122C67.1298 15.2422 67.2021 15.1723 67.0213 14.9275L66.2979 13.8084C66.1532 13.5636 66.117 13.4237 66.117 13.2838V12.8641C66.117 11.9199 65.5021 10.8008 64.7787 10.486C63.9106 10.1013 62.8617 10.1363 61.4511 10.6958C60.0043 11.2204 59.0277 12.1647 57.2191 12.7942C54.3255 13.9133 51.7936 13.3188 51.5404 11.8849C52.9872 11.8849 54.217 11.5002 54.9043 11.1855C55.5915 10.8357 58.5574 9.64668 59.3532 9.43685V9.40187ZM44.4149 13.1439C44.9936 13.1439 45.5362 13.2488 46.1149 13.4586H46.2596L46.0426 14.6127C45.9702 15.0324 45.8255 15.1373 45.3553 15.1723H45.2106V15.0324L45.1383 14.1931C44.8489 14.0532 44.5957 14.0182 44.3064 14.0182C43.7277 14.0182 43.3298 14.263 43.3298 14.6477C43.3298 14.8226 43.366 14.9275 43.5106 14.9974C43.6191 15.1023 43.7277 15.2072 43.8723 15.2422L44.7766 15.7318L44.9574 15.8367C45.7532 16.2564 46.0426 16.6411 46.0426 17.2356C46.0426 18.4247 44.9574 19.229 43.5106 19.264C42.9319 19.264 42.4617 19.1591 41.8468 18.9493H41.7021L41.7383 18.7744L41.883 17.7952C41.9553 17.3755 42.1362 17.2356 42.6064 17.2356H42.7511V17.6203L42.8234 18.2149L43.1851 18.3198L43.6915 18.3897C44.017 18.3897 44.7404 18.3198 44.7404 17.6203C44.7394 17.5205 44.7163 17.422 44.6726 17.3315C44.6289 17.241 44.5657 17.1606 44.4872 17.0957L44.0532 16.8509L43.1851 16.3963L42.534 16.0466C42.394 15.9225 42.2828 15.771 42.208 15.6022C42.1331 15.4333 42.0963 15.251 42.1 15.0674C42.1 14.5777 42.3532 14.0182 42.7872 13.6685C43.1489 13.3537 43.7277 13.1789 44.3787 13.1789L44.4149 13.1439ZM16.4915 13.2138L16.383 13.6335L16.2745 14.1581L16.0936 15.487L15.9128 16.8859L15.8043 17.7602L15.7319 18.1099L15.6957 18.3547C15.8766 18.3547 16.0574 18.3547 15.9851 18.3897H16.383L16.3106 18.6345C16.2021 18.8443 16.166 18.9143 16.0574 18.9842C15.9128 19.1591 15.7681 19.1591 15.5149 19.1591H14.0681L14.1404 18.9493L14.1766 18.8443L14.3574 18.3897L14.5021 17.4455L14.6468 16.5712H12.4043L12.3681 16.9209L12.2234 17.7602L12.1872 18.1449L12.1511 18.3547H12.9468L12.8383 18.5995C12.766 18.8094 12.6936 18.9143 12.6213 18.9493C12.4766 19.1241 12.3319 19.1591 12.0787 19.1591H10.5596L10.6681 18.9143V18.8094L10.8489 18.3547C10.9213 18.1449 10.9936 17.7952 11.0298 17.4105L11.3915 14.9624C11.3915 14.5428 11.4638 14.263 11.5 14.0532L11.1383 14.0182H10.6681L10.7766 13.8084C10.8489 13.5985 10.9213 13.5286 10.9936 13.4237C11.1383 13.2488 11.283 13.2488 11.5723 13.2488H12.9468V13.4586L12.8745 13.6685L12.8021 14.1581L12.6936 14.8575L12.5851 15.487V15.6969H14.7553L14.9362 14.9624V14.8925V14.263L14.9723 14.0182H14.2128L14.3213 13.8084C14.3936 13.5985 14.4298 13.5286 14.5383 13.4237C14.6106 13.3188 14.7191 13.2838 14.8277 13.2488H16.5277L16.4915 13.2138ZM29.8745 13.2138L29.7298 13.5636L29.6574 13.9133L29.5851 14.1931L29.4043 15.522L29.2234 16.9209C29.1511 17.4455 29.0787 17.9351 28.9702 18.2848H30.2723L30.417 18.04L30.5255 17.7952C30.5979 17.5504 30.6702 17.4455 30.7787 17.3755C30.8872 17.2706 31.0319 17.2706 31.2851 17.2706H31.5021L31.1404 19.1591H30.9957H28.3915L28.3191 19.1241H27.234L27.3426 18.9143L27.4872 18.5646L27.7043 17.4455L28.0298 14.9624L28.1745 14.0532H27.2702L27.3787 13.8084C27.4872 13.6335 27.5234 13.5286 27.6319 13.4586C27.7043 13.3537 27.8128 13.3188 27.9213 13.2838H29.5489L29.8745 13.2488V13.2138ZM22.8936 13.2138L23.9787 18.3897H24.7021L24.5936 18.6345C24.5213 18.8443 24.4489 18.9143 24.3766 18.9842C24.2319 19.1241 24.0872 19.1591 23.7979 19.1591H22.5681V18.7744L22.3872 17.5154L22.3149 16.9908H20.7234L20.6149 17.1657L20.0362 18.3897L19.783 19.0542L19.7468 19.1941H18.3L18.6617 18.7045L18.8787 18.2848L19.3128 17.5154L19.5298 17.0957L21.1936 14.0532H20.4702L20.5426 13.8433L20.6149 13.7384C20.7234 13.5286 20.8681 13.3887 20.9766 13.3887C21.1213 13.3188 21.1936 13.2838 21.483 13.2838H22.7489L22.8936 13.2138ZM39.7851 13.2138L39.4957 13.5286L39.134 13.9832L39.0617 14.0881L38.483 14.8575L38.2298 15.2072L37.1085 16.781L37.0362 17.0957V17.3755L36.9638 17.6903L36.8553 18.1449V18.3547H37.6511L37.5426 18.5995C37.4702 18.8094 37.434 18.8793 37.3255 18.9493C37.1809 19.1241 37.0362 19.1591 36.7468 19.1591H35.2277L35.3362 18.9143L35.4447 18.5646C35.5532 18.2848 35.6255 17.8651 35.6617 17.4455L35.7702 16.746L34.6489 14.0532H33.8532L33.9617 13.8084C34.034 13.6335 34.0702 13.5286 34.1787 13.4586C34.2872 13.3537 34.3596 13.2838 34.5043 13.2838H35.3L35.734 13.2488H35.8787V13.3887L35.9511 13.5985L36.4213 14.9275L36.6021 15.3471L36.7468 15.6969L37.1085 15.1373L37.8319 13.9832L38.1936 13.3537V13.2488H39.7851V13.2138ZM3.47021 13.2138H3.83191L5.56808 13.2488H8.60638L8.38936 14.5078C8.35319 14.9275 8.17234 15.0674 7.7383 15.0674H7.55745V14.7176L7.48511 14.0881L6.50851 14.0182L6.14681 17.0258C6.08906 17.3782 6.01666 17.7282 5.92979 18.075L5.89362 18.3547H6.72553L6.65319 18.5995L6.4 18.9493C6.25532 19.1241 6.11064 19.1241 5.85745 19.1241H4.08511L4.26596 18.8793C4.51915 18.5296 4.59149 18.2149 4.7 17.3405L5.09787 14.0532H4.22979L4.08511 14.263L3.9766 14.5428C3.86809 14.7876 3.79574 14.8925 3.68723 14.9624C3.57872 15.0674 3.47021 15.0674 3.18085 15.0674H3L3.32553 13.2138H3.47021ZM21.917 14.5428L21.0851 16.1515H22.1702V16.0116L21.9894 15.2072L21.917 14.5428Z" fill="#BE2D3E"/>
</svg>
