<svg width="90" height="40" viewBox="0 0 90 40" fill="none" xmlns="http://www.w3.org/2000/svg">
<g clip-path="url(#clip0_3070_14698)">
<path d="M28.7659 21.1905H35.3031L34.717 22.471C34.68 22.408 34.6278 22.3549 34.5649 22.3164C34.502 22.2778 34.4303 22.2551 34.3563 22.2502H32.598L29.9381 27.5491H28.2249L30.8848 22.2502H28.7208C28.4954 22.2502 28.2699 22.3386 28.0896 22.471L28.7659 21.1905ZM48.2422 26.3569L47.6561 27.5933H41.3443L44.3199 21.632V21.4554V21.2346H49.9554L49.3242 22.471C49.2873 22.408 49.2351 22.3549 49.1722 22.3164C49.1092 22.2778 49.0376 22.2551 48.9636 22.2502H45.7175L44.9511 23.6633H48.2422L47.611 24.9438C47.58 24.8726 47.5303 24.8105 47.467 24.764C47.4036 24.7175 47.3289 24.6882 47.2504 24.6789H44.4101L43.5084 26.4894H47.566C47.8365 26.4894 48.0619 26.4452 48.2422 26.3127V26.3569ZM79.5757 26.3569L78.9896 27.5933H74.1656L77.1412 21.632V21.4554V21.2346H79.0798L76.3748 26.5777H78.9446C79.17 26.5777 79.3954 26.5335 79.5757 26.401V26.3569ZM33.4095 27.5933L36.34 21.6762V21.4554V21.2346H39.6762C40.3525 21.2346 41.5698 21.2346 41.5698 22.736C41.5364 23.2538 41.3345 23.7476 40.9937 24.1449C40.653 24.5422 40.1913 24.8222 39.6762 24.9438L40.1271 27.1517C40.2172 27.3283 40.3074 27.505 40.4878 27.5933H38.6844L38.1434 24.9438H36.34L35.1678 27.6374H33.3644L33.4095 27.5933ZM40.0369 22.736C40.0369 22.4269 39.7664 22.2061 39.4959 22.2502H37.7827L36.881 23.9282H38.459C39.4057 23.9282 40.0369 23.3542 40.0369 22.6918V22.736ZM59.7838 21.1905L59.8289 21.4112V21.632L56.8082 27.5491H58.5214L61.6773 21.1905H59.7387H59.7838ZM82.7316 21.1905V21.632L79.8012 27.5491H81.5144L84.6702 21.1905H82.7316ZM62.9397 21.1905H69.522L68.8908 22.471C68.8539 22.408 68.8016 22.3549 68.7387 22.3164C68.6758 22.2778 68.6041 22.2551 68.5301 22.2502H66.7718L64.1119 27.5491H62.3987L65.1037 22.2502H62.9397C62.7142 22.2502 62.4888 22.3386 62.3085 22.471L62.9397 21.1905ZM71.3704 21.1905C71.3704 21.4112 71.2802 21.5879 71.145 21.7203L66.0054 27.5933H67.4932L68.7104 26.1361H71.8663L71.9114 27.5933H73.4894L73.1287 21.1905H71.3253H71.3704ZM69.567 25.1205L71.8213 22.471V25.1205H69.567ZM87.6007 21.1905C87.6007 21.4112 87.5556 21.5879 87.4204 21.7203L82.2357 27.5933H83.7235L84.9858 26.1361H88.1417V27.5933H89.7648L89.4041 21.1905H87.6007ZM85.8424 25.1205L88.0966 22.471L88.1417 25.1205H85.8424ZM51.4432 22.0736L51.6235 21.6762L51.7137 21.4554V21.2346H53.3367L54.9147 25.6504L56.9435 21.6762L56.9886 21.4554V21.2346H58.3411L55.1401 27.6374H53.9228L52.2547 22.9126L49.8653 27.6374H48.6931L51.3981 22.1178L51.4432 22.0736Z" fill="#006A65"/>
<path d="M3.3385 32.1854H1.67038V32.7594H2.57207L2.43681 33.0685C2.34361 33.1763 2.22537 33.2607 2.09201 33.3144C1.95865 33.3682 1.81406 33.3899 1.67038 33.3776C1.38341 33.3776 1.1082 33.266 0.90528 33.0672C0.702362 32.8685 0.588364 32.5989 0.588364 32.3179C0.588364 32.0368 0.702362 31.7672 0.90528 31.5685C1.1082 31.3697 1.38341 31.2581 1.67038 31.2581C1.85072 31.2581 2.03106 31.3022 2.16631 31.3905L2.52698 31.6996L3.11308 31.3464L2.7524 30.949C2.4819 30.7282 2.07614 30.5957 1.67038 30.6399C0.7687 30.6399 0.00226947 31.3464 0.00226947 32.2737V32.362C-0.0428147 33.201 0.588364 33.9517 1.49005 33.9958H1.67038C2.25648 34.04 2.84257 33.7309 3.11308 33.201C3.29341 32.8919 3.3385 32.5386 3.3385 32.1854ZM89.7198 31.3022V30.7282H87.8713V33.9517H89.7198V33.2893H88.5476V32.5828H89.6747V31.9646H88.5476V31.3464H89.7198V31.3022ZM77.3216 33.9517L76.0142 30.7282H75.2477L73.9403 33.9517H74.7067L74.9772 33.2893H76.3298L76.5552 33.9517H77.3216ZM76.1044 32.6711H75.2027L75.6535 31.3905L76.1044 32.6711ZM79.4857 33.9517V33.3335H78.3586V30.7282H77.6372V33.9517H79.4406V33.9075L79.4857 33.9517ZM80.5677 33.9517V30.7282H79.8013V33.9517H80.5226H80.5677ZM84.2195 33.9517L82.867 30.7282H82.1456L80.8382 33.9517H81.6046L81.8751 33.2893H83.2277L83.4531 33.9517H84.2195ZM82.9571 32.6711H82.0555L82.5063 31.3905L82.9571 32.6711ZM87.3303 33.9517V30.7282H86.654V32.8477L85.1212 30.7282H84.49V33.9517H85.1212V31.7438L86.654 33.9517H87.3303ZM74.1206 31.3022V30.7282H72.0468V31.3464H72.723V33.9075H73.4444V31.3464H74.1206V31.3022ZM69.2516 32.3179C69.2516 31.4347 68.5302 30.684 67.6285 30.6399H67.5384C67.084 30.6399 66.6482 30.8167 66.3269 31.1313C66.0057 31.446 65.8252 31.8728 65.8252 32.3179C65.8252 32.7629 66.0057 33.1897 66.3269 33.5044C66.6482 33.819 67.084 33.9958 67.5384 33.9958C68.44 34.04 69.2065 33.3776 69.2516 32.4945V32.3179ZM68.5302 32.3179C68.5302 32.8919 68.1245 33.3335 67.6285 33.3776H67.5384C67.2574 33.3776 66.9879 33.2683 66.7892 33.0737C66.5905 32.8791 66.4789 32.6151 66.4789 32.3399C66.4789 32.0647 66.5905 31.8008 66.7892 31.6062C66.9879 31.4116 67.2574 31.3022 67.5384 31.3022C68.0794 31.3022 68.5302 31.7438 68.5302 32.2737V32.3179ZM71.6861 33.9517V30.7282H70.9648V33.9517H71.6861ZM65.6899 31.3022V30.7282H63.616V31.3464H64.2923V33.9075H65.0136V31.3464H65.6899V31.3022ZM63.7513 33.9517L62.3988 30.7282H61.6323L60.37 33.9517H61.1364L61.3618 33.2893H62.7144L62.9849 33.9517H63.7513ZM62.4889 32.6711H61.5873L62.0381 31.3905L62.4889 32.6711ZM60.5052 31.3464V30.7282H58.4314V31.3464H59.1527V33.9075H59.829V31.3464H60.5052ZM54.5541 32.3179C54.5541 31.4347 53.8328 30.684 52.9311 30.6399H52.7958C52.4614 30.6571 52.1395 30.77 51.8698 30.9646C51.6002 31.1591 51.3947 31.4268 51.2788 31.7346C51.1628 32.0423 51.1415 32.3765 51.2174 32.696C51.2934 33.0155 51.4632 33.3061 51.706 33.5321C51.9488 33.758 52.2539 33.9092 52.5836 33.9672C52.9132 34.0251 53.2529 33.9871 53.5608 33.8579C53.8686 33.7287 54.131 33.514 54.3156 33.2403C54.5001 32.9666 54.5987 32.6459 54.5992 32.3179H54.5541ZM53.8328 32.3179C53.8328 32.8919 53.427 33.3335 52.886 33.3776C52.605 33.3893 52.3308 33.2912 52.1236 33.1049C51.9165 32.9186 51.7934 32.6593 51.7814 32.3841C51.7695 32.1089 51.8696 31.8403 52.0599 31.6374C52.2501 31.4345 52.5148 31.3139 52.7958 31.3022C53.3819 31.3022 53.8328 31.7438 53.8328 32.2737V32.3179ZM58.1609 32.9361C58.1609 31.9646 56.8083 32.0529 56.8083 31.523C56.8083 31.3905 56.9887 31.2581 57.1239 31.2581C57.3493 31.2581 57.5748 31.3905 57.6649 31.5672L58.1158 31.0814C57.8903 30.7723 57.5297 30.6399 57.169 30.6399C56.628 30.5957 56.1772 30.949 56.1321 31.523C56.1321 32.0971 56.5829 32.362 57.0337 32.5828L57.2592 32.7594C57.3493 32.8036 57.3944 32.8919 57.3944 33.0244C57.3944 33.201 57.2592 33.3776 57.0337 33.3776C56.7182 33.3776 56.4927 33.2452 56.3575 33.0244L55.9066 33.5101C56.1772 33.8192 56.5378 33.9517 56.9436 33.9517C57.094 33.9777 57.2485 33.9709 57.3959 33.9316C57.5434 33.8924 57.6801 33.8217 57.7965 33.7247C57.9128 33.6277 58.0057 33.5066 58.0687 33.3703C58.1317 33.234 58.1632 33.0857 58.1609 32.9361ZM50.8121 33.9517V33.3335H49.685V30.7282H48.9637V33.9517H50.767V33.9075L50.8121 33.9517ZM43.9593 32.3179C43.9593 32.0088 43.9143 31.6996 43.7339 31.4347C43.3732 30.7723 42.697 30.7723 42.0207 30.7723H41.3445V33.9517H42.1109C42.5617 33.9958 43.0126 33.9075 43.3732 33.6426C43.779 33.2893 43.9593 32.8036 43.9593 32.3179ZM43.2831 32.3179C43.3034 32.4541 43.2925 32.593 43.2512 32.7246C43.2098 32.8561 43.1391 32.977 43.0442 33.0785C42.9492 33.18 42.8324 33.2595 42.7021 33.3112C42.5719 33.3629 42.4315 33.3856 42.2912 33.3776H42.0658V31.2581H42.156C42.4265 31.2581 42.697 31.3022 42.9224 31.4789C43.1478 31.6996 43.2831 32.0088 43.2831 32.3179ZM46.3037 31.3464V30.7282H44.4553V33.9517H46.2586V33.2893H45.1315V32.5828H46.2586V31.9646H45.1315V31.3464H46.3037ZM48.5579 33.9517V33.3335H47.4759V30.7282H46.7546V33.9517H48.5579V33.9075V33.9517ZM39.4509 31.3022V30.7282H37.6476V33.9517H39.4509V33.2893H38.3238V32.5828H39.4509V31.9646H38.3238V31.3464H39.4509V31.3022ZM36.9713 33.9517V30.7282H36.2499V33.9517H36.9713ZM36.0245 30.7282H35.2581L34.4466 33.0244L33.6351 30.7282H32.9137L34.131 33.9517H34.8523L36.0696 30.7282H36.0245ZM32.7785 32.3179C32.7785 31.4347 32.0571 30.684 31.1103 30.6399H31.0202C30.7952 30.6428 30.573 30.689 30.3663 30.776C30.1596 30.8631 29.9724 30.9891 29.8154 31.147C29.6584 31.3048 29.5347 31.4914 29.4513 31.6961C29.3679 31.9008 29.3266 32.1196 29.3295 32.3399C29.3325 32.5603 29.3797 32.7779 29.4686 32.9804C29.5574 33.1829 29.6861 33.3662 29.8472 33.52C30.0084 33.6737 30.1989 33.7949 30.4079 33.8766C30.6169 33.9582 30.8403 33.9987 31.0653 33.9958C31.9669 34.04 32.7334 33.3776 32.7785 32.4945V32.3179ZM32.0571 32.3179C32.012 32.9361 31.5612 33.3776 31.1103 33.3776H31.0653C30.7843 33.3776 30.5148 33.2683 30.3161 33.0737C30.1174 32.8791 30.0058 32.6151 30.0058 32.3399C30.0058 32.0647 30.1174 31.8008 30.3161 31.6062C30.5148 31.4116 30.7843 31.3022 31.0653 31.3022C31.5612 31.3022 32.012 31.7438 32.0571 32.2737V32.3179ZM14.294 31.6996C14.294 31.523 14.294 31.3022 14.1136 31.1256C13.9333 30.8607 13.6177 30.7282 13.257 30.684H12.0848V33.9517H12.8062V32.7153H13.1668C13.4824 32.7153 13.798 32.627 14.0685 32.4503C14.2038 32.2737 14.294 32.0087 14.294 31.6996ZM13.6177 31.6996C13.6177 32.0087 13.3923 32.1412 13.1668 32.1412H12.8062V31.3022H13.3021C13.4824 31.3464 13.6177 31.523 13.6177 31.7438V31.6996ZM17.9007 32.3179C17.9007 31.4347 17.1793 30.684 16.2777 30.6399H16.1424C15.9174 30.6428 15.6952 30.689 15.4885 30.776C15.2818 30.8631 15.0946 30.9891 14.9376 31.147C14.7806 31.3048 14.6569 31.4914 14.5735 31.6961C14.4902 31.9008 14.4488 32.1196 14.4517 32.3399C14.4547 32.5603 14.502 32.7779 14.5908 32.9804C14.6796 33.1829 14.8083 33.3662 14.9695 33.52C15.1306 33.6737 15.3212 33.7949 15.5302 33.8766C15.7391 33.9582 15.9625 33.9987 16.1875 33.9958C17.0892 34.04 17.8556 33.3776 17.9007 32.4945V32.3179ZM17.1793 32.3179C17.1343 32.9361 16.7736 33.3776 16.2326 33.3776C16.0934 33.3805 15.9551 33.3566 15.8254 33.3071C15.6957 33.2576 15.5773 33.1836 15.4768 33.0893C15.3763 32.995 15.2958 32.8822 15.2398 32.7574C15.1838 32.6326 15.1535 32.4983 15.1506 32.362C15.1476 32.2257 15.1721 32.0902 15.2226 31.9632C15.2731 31.8362 15.3486 31.7202 15.4449 31.6218C15.5412 31.5234 15.6564 31.4445 15.7838 31.3897C15.9112 31.3348 16.0484 31.3051 16.1875 31.3022C16.7285 31.3022 17.1793 31.7438 17.1793 32.2737V32.3179ZM21.5525 32.5828V31.9646H20.2901V31.3464H21.5074V30.7282H19.6139V33.9517H20.2901V32.627H21.5074V32.5828H21.5525ZM23.7165 31.3464V30.7282H21.8681V33.9517H23.6715V33.2893H22.5444V32.5828H23.6715V31.9646H22.5444V31.3464H23.7165ZM26.6019 33.9517L25.6552 32.5828L25.9708 32.4503C26.2413 32.2737 26.3765 32.0087 26.3765 31.6996C26.3765 31.4789 26.3314 31.3022 26.2413 31.1256C25.9708 30.8165 25.5199 30.684 25.1142 30.7282H24.2125V33.9517H24.8887V32.5828L25.7904 33.9075H26.6019V33.9517ZM25.7002 31.7438L25.6101 31.9646C25.4748 32.0971 25.2945 32.1854 25.1142 32.1412H24.8887V31.3022H25.1142C25.3847 31.3022 25.6552 31.3905 25.6552 31.7438H25.7002ZM29.1717 33.9517L28.225 32.5828C28.3602 32.5828 28.4504 32.4945 28.5856 32.4503C28.8111 32.2737 28.9463 32.0087 28.9463 31.6996C28.9463 31.4789 28.9463 31.3022 28.8111 31.1256C28.5406 30.8165 28.1348 30.684 27.684 30.7282H26.7823V33.9517H27.5036V32.5828L28.4053 33.9075H29.1717V33.9517ZM28.27 31.7438C28.27 31.788 28.27 31.8763 28.1799 31.9646C28.0897 32.0971 27.9094 32.1854 27.729 32.1412H27.4585V31.2581H27.684C27.9995 31.2581 28.27 31.3905 28.27 31.6996V31.7438ZM11.8143 31.7438C11.8143 31.523 11.7242 31.3022 11.634 31.1256C11.4086 30.8607 11.093 30.7282 10.7323 30.684H9.6052V33.9517H10.2815V32.7153H10.6421C10.9577 32.7153 11.2733 32.627 11.5438 32.4503C11.6791 32.2737 11.7692 32.0087 11.8143 31.6996V31.7438ZM11.093 31.7438C11.093 32.0088 10.8676 32.1412 10.6421 32.1412H10.2815V31.3022H10.8225C11.0028 31.3905 11.1381 31.523 11.1381 31.7438H11.093ZM6.13372 33.9517L5.23203 32.5828C5.36729 32.5828 5.45745 32.4945 5.54762 32.4503C5.81813 32.2737 5.95338 32.0087 5.95338 31.6996C5.95338 31.4789 5.9083 31.3022 5.81813 31.1256C5.54762 30.8165 5.09678 30.684 4.69102 30.7282H3.78934V33.9517H4.4656V32.5828L5.36729 33.9075H6.1788L6.13372 33.9517ZM5.23203 31.7438L5.18695 31.9646C5.0517 32.0971 4.87136 32.1854 4.73611 32.1412H4.4656V31.2581H4.69102C5.00661 31.2581 5.27712 31.3905 5.23203 31.6996V31.7438ZM9.0191 32.4945V30.7282H8.34284V32.7153C8.34284 33.1568 8.16251 33.3776 7.71166 33.3776C7.53133 33.3776 7.35099 33.2893 7.21574 33.1127C7.12557 32.9802 7.08048 32.8036 7.12557 32.6711V30.6399H6.40422V32.627C6.40422 32.8477 6.40422 33.0685 6.49439 33.2452C6.71981 33.6867 7.21574 33.9517 7.71166 33.9517C8.16251 33.9517 8.56826 33.775 8.83877 33.4659C8.97402 33.1568 9.06419 32.8477 9.0191 32.4945Z" fill="#006A65"/>
<path d="M12.8517 15.5822L5.77345 16.2887L1.03961 25.5617C4.7816 25.5617 6.72022 25.1643 8.92934 22.1175C10.372 19.9979 11.6344 17.8342 12.8517 15.5822Z" fill="#006C67"/>
<path d="M31.9679 7.01562L32.4638 6H17.586C12.6268 6 10.0119 7.67798 8.43395 10.769L7.21667 13.1977H13.9793C16.3688 8.6936 19.2992 7.14809 26.4676 7.01562H32.013H31.9679Z" fill="#006C67"/>
<path d="M31.5174 8.03143C22.4104 8.07559 20.9226 9.57694 18.8939 13.1979H28.8575L31.5625 8.03143H31.5174Z" fill="#006C67"/>
<path d="M21.9137 20.7488C21.6245 22.355 20.8377 23.8352 19.6602 24.9886C18.4827 26.1419 16.9714 26.9125 15.3314 27.1958C14.229 27.3885 13.1142 27.5066 11.9952 27.549H0.00280762L0.453649 26.6659L5.09732 26.6217C6.40476 26.6217 7.7122 26.4892 9.01964 26.3568C11.8149 26.0918 14.1592 24.1489 14.8806 21.4995L15.6921 18.85C15.9195 17.7588 16.5228 16.7773 17.4011 16.0698C18.2793 15.3624 19.379 14.972 20.5161 14.9642L28.2706 14.5226L27.8648 15.2291L25.5204 15.3616C23.7171 15.494 22.3195 16.8629 22.094 18.5851L21.9137 20.7929V20.7488Z" fill="#E31936"/>
</g>
<defs>
<clipPath id="clip0_3070_14698">
<rect width="90" height="40" fill="white"/>
</clipPath>
</defs>
</svg>
