<svg width="90" height="40" viewBox="0 0 90 40" fill="none" xmlns="http://www.w3.org/2000/svg">
<path d="M44.2424 4C57.6419 4 68.4848 11.2 68.4848 20C68.4848 28.8 57.6419 36 44.2424 36C30.843 36 20 28.8889 20 20C20 11.1111 30.843 4 44.2424 4ZM44.2424 5.68889C33.1791 5.68889 24.1873 12.1333 24.1873 20C24.1873 27.8667 33.1791 34.3111 44.2424 34.3111C55.3058 34.3111 64.2975 27.8667 64.2975 20C64.2975 12.1333 55.3058 5.68889 44.2424 5.68889ZM43.9339 9.06667C50.2369 9.06667 54.1598 12.0444 54.1598 15.0222C54.2039 16.6667 53.4105 18.1333 52.0441 19.0222C51.5152 19.2889 51.5152 19.3778 52.0441 19.6C53.4105 20.1333 55.5702 21.4667 55.5702 24.1333C55.5702 28.1333 51.1625 31.1111 44.1102 31.1111C40.4254 31.0667 36.8363 29.9222 33.7961 27.8222C33.1791 27.4222 33.3554 27.2 33.4876 26.9333L34.4573 25.8222C34.7658 25.5111 34.8981 25.6 35.0744 25.7333C35.7796 26.3111 35.8237 26 35.8237 25.3778V14.8C35.8237 14.1778 35.7796 13.9111 35.0744 14.4C34.9421 14.5778 34.7658 14.6667 34.4573 14.3556L33.5758 13.2889C33.3994 13.1111 33.3113 12.8444 33.8843 12.4C36.7493 10.2222 40.2755 9.11111 43.9339 9.11111V9.06667ZM45.3003 20.7111H41.9063C41.5096 20.7111 41.3774 20.8444 41.3774 21.2444V27.3333C41.3774 28.0444 41.8182 28.4 42.6556 28.4H45.5207C47.5923 28.4 49.2672 26.6667 49.2231 24.5778C49.1891 23.5478 48.7622 22.5709 48.0314 21.8505C47.3006 21.1301 46.3222 20.722 45.3003 20.7111ZM44.5069 11.7333H42.6556C41.8182 11.7333 41.3333 12.1333 41.3333 12.8V17.8667C41.3333 18.2222 41.5096 18.4 41.9063 18.4H44.3747C46.27 18.4 47.7686 16.8889 47.8127 15.0222V14.8889C47.7245 13.1111 46.1818 11.6444 44.3747 11.7778L44.5069 11.7333Z" fill="#0071B7"/>
</svg>
